<svg xmlns="http://www.w3.org/2000/svg" viewBox="0 0 144 144">
  <title>Hoodie placeholder</title>
  <!-- background tile -->
  <rect x="0" y="0" width="144" height="144" rx="14" fill="#e5e7eb"/>
  <!-- subtle vignette -->
  <linearGradient id="g" x1="0" y1="0" x2="0" y2="1">
    <stop offset="0" stop-color="#000" stop-opacity=".06"/>
    <stop offset="1" stop-color="#000" stop-opacity="0"/>
  </linearGradient>
  <rect x="0" y="0" width="144" height="72" rx="14" fill="url(#g)"/>
  <!-- hoodie silhouette -->
  <!-- hood -->
  <path d="M72 26c-14 0-26 10-28 24l9 6c4-8 11-13 19-13s15 5 19 13l9-6C98 36 86 26 72 26z"
        fill="#94a3b8"/>
  <!-- torso -->
  <path d="M40 60c-5 3-8 9-8 15v28c0 6 5 10 11 10h58c6 0 11-4 11-10V75c0-6-3-12-8-15l-10-6
           c-3 7-11 12-22 12s-19-5-22-12l-10 6z"
        fill="#cbd5e1" />
  <!-- pocket -->
  <rect x="56" y="90" width="32" height="12" rx="6" fill="#94a3b8"/>
  <!-- cuffs/hem hints -->
  <rect x="32" y="116" width="80" height="2.5" rx="1.25" fill="#94a3b8"/>
</svg>
