<?xml version="1.0" encoding="UTF-8"?>
<svg version="1.1" xmlns="http://www.w3.org/2000/svg" width="1360" height="80">
<path d="M0 0 C448.8 0 897.6 0 1360 0 C1360 26.4 1360 52.8 1360 80 C911.2 80 462.4 80 0 80 C0 53.6 0 27.2 0 0 Z " fill="#286896" transform="translate(0,0)"/>
<path d="M0 0 C1.1891375 0.01332367 1.1891375 0.01332367 2.40229797 0.0269165 C3.30300522 0.02721863 4.20371246 0.02752075 5.13171387 0.02783203 C6.10055008 0.04847717 7.06938629 0.06912231 8.06758118 0.09039307 C9.06215836 0.09605286 10.05673553 0.10171265 11.08145142 0.10754395 C14.26090954 0.12995087 17.43924442 0.18015602 20.61836243 0.23101807 C22.77264304 0.25107745 24.9269413 0.26932919 27.08125305 0.28570557 C32.36484 0.32982955 37.64777098 0.39678428 42.93086243 0.48101807 C43.1291228 6.20998017 43.27401877 11.93693348 43.37031555 17.66851807 C43.41046601 19.61646312 43.46500156 21.56416827 43.53437805 23.5112915 C43.63181513 26.3169062 43.67686852 29.11932871 43.71211243 31.92633057 C43.75340271 32.79218781 43.79469299 33.65804504 43.8372345 34.55014038 C43.8399854 38.2850933 43.7927114 40.55041518 41.18740845 43.36355591 C33.94012161 48.89703367 25.91902805 51.25081666 16.79804993 50.95367432 C8.45288293 49.5779724 1.43916144 45.0960696 -3.73710632 38.49664307 C-8.57282229 31.17925469 -9.99604005 23.13628305 -9.06913757 14.48101807 C-5.23611873 1.21725483 -5.23611873 1.21725483 0 0 Z " fill="#FDF7B9" transform="translate(1317.0691375732422,-0.48101806640625)"/>
<path d="M0 0 C0.33 0 0.66 0 1 0 C1 2.97 1 5.94 1 9 C-1.64 9 -4.28 9 -7 9 C-6.21625 8.2575 -5.4325 7.515 -4.625 6.75 C-2.43495469 4.45566682 -1.17268614 2.87841142 0 0 Z " fill="#EFF4F7" transform="translate(1359,71)"/>
<path d="M0 0 C2.66666667 2.66666667 5.33333333 5.33333333 8 8 C5.36 8 2.72 8 0 8 C0 5.36 0 2.72 0 0 Z " fill="#F1F5F8" transform="translate(0,72)"/>
<path d="M0 0 C2.64 0 5.28 0 8 0 C8 2.64 8 5.28 8 8 C5.33333333 5.33333333 2.66666667 2.66666667 0 0 Z " fill="#FEFEFA" transform="translate(1352,0)"/>
<path d="M0 0 C2.64 0 5.28 0 8 0 C5.33333333 2.66666667 2.66666667 5.33333333 0 8 C0 5.36 0 2.72 0 0 Z " fill="#F1F5F8" transform="translate(0,0)"/>
</svg>
