<?xml version="1.0" encoding="UTF-8"?>
<svg version="1.1" xmlns="http://www.w3.org/2000/svg" width="1360" height="80">
<path d="M0 0 C448.8 0 897.6 0 1360 0 C1360 26.4 1360 52.8 1360 80 C911.2 80 462.4 80 0 80 C0 53.6 0 27.2 0 0 Z " fill="#286896" transform="translate(0,0)"/>
<path d="M0 0 C2.91326147 2.06901019 5.41609738 4.09428742 7.375 7.1328125 C8.82749184 9.19211087 8.82749184 9.19211087 11.09375 9.390625 C11.8878125 9.34421875 12.681875 9.2978125 13.5 9.25 C14.38252441 9.21632324 15.26504883 9.18264648 16.17431641 9.14794922 C17.10679199 9.09912598 18.03926758 9.05030273 19 9 C28.53716002 8.72890115 35.90537407 9.60358271 44 15 C44 30.18 44 45.36 44 61 C-5.17 61 -54.34 61 -105 61 C-103.98052222 50.80522225 -102.49924748 45.75362244 -95 39.125 C-89.28547962 35.07721473 -84.87486344 33.59266064 -78 33 C-77.79375 31.7625 -77.5875 30.525 -77.375 29.25 C-74.40697584 16.21116281 -66.68616865 5.58951432 -55.6875 -1.875 C-37.49487511 -12.54834303 -17.59554497 -11.27481522 0 0 Z " fill="#1F4F73" transform="translate(1316,19)"/>
<path d="M0 0 C1.85144316 0.05018777 3.70301607 0.09581049 5.5546875 0.13671875 C10.0839163 0.23817997 14.59513473 0.43359724 19.125 0.625 C19.125 11.845 19.125 23.065 19.125 34.625 C14.505 32.975 9.885 31.325 5.125 29.625 C0.38079762 29.39756018 -3.95362946 29.52633726 -8.65429688 29.90820312 C-15.1114046 30.21979333 -15.1114046 30.21979333 -17.48852539 28.36816406 C-18.7890625 26.76953125 -18.7890625 26.76953125 -20.875 23.625 C-22.57370727 22.17853649 -22.57370727 22.17853649 -24.1875 21.25 C-25.074375 20.71375 -25.96125 20.1775 -26.875 19.625 C-26.67436701 13.40537719 -25.75173862 8.05570093 -22.42529297 2.71533203 C-16.48515328 -2.15346713 -7.25792358 -0.34029543 0 0 Z " fill="#FCF6B9" transform="translate(1340.875,-0.625)"/>
<path d="M0 0 C0.33 0 0.66 0 1 0 C1 2.97 1 5.94 1 9 C-1.64 9 -4.28 9 -7 9 C-6.21625 8.2575 -5.4325 7.515 -4.625 6.75 C-2.43495469 4.45566682 -1.17268614 2.87841142 0 0 Z " fill="#EEF2F4" transform="translate(1359,71)"/>
<path d="M0 0 C2.66666667 2.66666667 5.33333333 5.33333333 8 8 C5.36 8 2.72 8 0 8 C0 5.36 0 2.72 0 0 Z " fill="#F1F5F8" transform="translate(0,72)"/>
<path d="M0 0 C2.64 0 5.28 0 8 0 C8 2.64 8 5.28 8 8 C5.33333333 5.33333333 2.66666667 2.66666667 0 0 Z " fill="#FEFEFA" transform="translate(1352,0)"/>
<path d="M0 0 C2.64 0 5.28 0 8 0 C5.33333333 2.66666667 2.66666667 5.33333333 0 8 C0 5.36 0 2.72 0 0 Z " fill="#F1F5F8" transform="translate(0,0)"/>
</svg>
