<?xml version="1.0" encoding="UTF-8"?>
<svg version="1.1" xmlns="http://www.w3.org/2000/svg" width="1360" height="80">
<path d="M0 0 C448.8 0 897.6 0 1360 0 C1360 26.4 1360 52.8 1360 80 C911.2 80 462.4 80 0 80 C0 53.6 0 27.2 0 0 Z " fill="#2B6A98" transform="translate(0,0)"/>
<path d="M0 0 C0.99 0.33 1.98 0.66 3 1 C2.03900391 1.8353125 2.03900391 1.8353125 1.05859375 2.6875 C-2.97601807 6.24709791 -6.91899746 9.74151805 -10.375 13.875 C-15.05453093 19.4453332 -20.58549288 24.16339594 -26 29 C-26 26 -26 26 -24.0234375 23.6953125 C-23.14945313 22.84710937 -22.27546875 21.99890625 -21.375 21.125 C-20.45847656 20.23167969 -19.54195312 19.33835937 -18.59765625 18.41796875 C-16.70851372 16.65950374 -14.84559252 15.01633206 -12.8125 13.4375 C-9.54263751 10.60361918 -7.15922943 7.47067014 -4.61328125 3.98828125 C-3 2 -3 2 0 0 Z " fill="#3774A1" transform="translate(1229,3)"/>
<path d="M0 0 C0.66 0.33 1.32 0.66 2 1 C0.43910974 2.41844009 -1.1237889 3.83467025 -2.6875 5.25 C-3.55761719 6.03890625 -4.42773438 6.8278125 -5.32421875 7.640625 C-7.82420863 9.84499564 -10.37945728 11.94133941 -13 14 C-11.47238013 10.37190281 -9.29392861 8.05653702 -6.5 5.3125 C-5.7059375 4.52488281 -4.911875 3.73726562 -4.09375 2.92578125 C-2 1 -2 1 0 0 Z M-14 14 C-13.67 15.32 -13.34 16.64 -13 18 C-13.99 18.66 -14.98 19.32 -16 20 C-15.125 15.125 -15.125 15.125 -14 14 Z " fill="#3875A1" transform="translate(1181,56)"/>
<path d="M0 0 C0.33 0 0.66 0 1 0 C1 2.97 1 5.94 1 9 C-1.97 9 -4.94 9 -8 9 C-6.8553125 8.1646875 -6.8553125 8.1646875 -5.6875 7.3125 C-3.03568819 5.03070844 -1.68044905 3.02480829 0 0 Z " fill="#ECF2F6" transform="translate(1359,71)"/>
<path d="M0 0 C2.97 0 5.94 0 9 0 C9 2.64 9 5.28 9 8 C7.87411986 7.04270084 6.7493285 6.08412105 5.625 5.125 C4.99851562 4.59132813 4.37203125 4.05765625 3.7265625 3.5078125 C2.44163349 2.38567993 1.20628025 1.20628025 0 0 Z " fill="#EDF3F7" transform="translate(1351,0)"/>
<path d="M0 0 C0.86625 1.11375 0.86625 1.11375 1.75 2.25 C3.72253526 4.66087643 5.76044282 6.84042701 8 9 C5.36 9 2.72 9 0 9 C0 6.03 0 3.06 0 0 Z " fill="#EEF3F7" transform="translate(0,71)"/>
<path d="M0 0 C2.64 0 5.28 0 8 0 C5.33333333 2.66666667 2.66666667 5.33333333 0 8 C0 5.36 0 2.72 0 0 Z " fill="#F1F5F8" transform="translate(0,0)"/>
</svg>
