<?xml version="1.0" encoding="UTF-8"?>
<svg version="1.1" xmlns="http://www.w3.org/2000/svg" width="1360" height="80">
<path d="M0 0 C448.8 0 897.6 0 1360 0 C1360 26.4 1360 52.8 1360 80 C911.2 80 462.4 80 0 80 C0 53.6 0 27.2 0 0 Z " fill="#286896" transform="translate(0,0)"/>
<path d="M0 0 C48.51 0 97.02 0 147 0 C147 11.22 147 22.44 147 34 C134.77341075 40.11329462 134.77341075 40.11329462 128.28962708 40.14717102 C127.34633545 40.15432632 126.40304382 40.16148163 125.4311676 40.16885376 C123.88899818 40.17288712 123.88899818 40.17288712 122.31567383 40.17700195 C120.68325241 40.18685875 120.68325241 40.18685875 119.01785278 40.19691467 C115.4142449 40.21663415 111.81067867 40.22830758 108.20703125 40.23828125 C106.97525335 40.24235678 105.74347546 40.2464323 104.47437096 40.25063133 C98.62616796 40.26933732 92.77798129 40.28390391 86.92975408 40.2922433 C80.19676526 40.30200482 73.46410615 40.32830026 66.73123342 40.36874419 C60.88571813 40.402643 55.04031258 40.41439651 49.19470787 40.41844749 C46.71526543 40.42331245 44.23582648 40.43492374 41.75644875 40.45348549 C38.28113343 40.47788524 34.80667394 40.47690978 31.33129883 40.4699707 C30.31330704 40.48278076 29.29531525 40.49559082 28.24647522 40.50878906 C18.72944407 40.43976341 11.69172273 37.3853856 4.7265625 30.93359375 C-0.04823577 25.58625179 -2.13167602 19.277145 -2.1875 12.1875 C-2.20167969 11.37667969 -2.21585938 10.56585938 -2.23046875 9.73046875 C-2 7 -2 7 0 0 Z " fill="#1F4F73" transform="translate(1213,0)"/>
<path d="M0 0 C0.33 0.99 0.66 1.98 1 3 C-0.36328125 5.69921875 -0.36328125 5.69921875 -2.3125 8.6875 C-2.94800781 9.68136719 -3.58351563 10.67523438 -4.23828125 11.69921875 C-4.81964844 12.45847656 -5.40101562 13.21773437 -6 14 C-6.66 14 -7.32 14 -8 14 C-7.36561334 10.53466285 -5.98631946 8.20125787 -4 5.3125 C-3.46375 4.52488281 -2.9275 3.73726562 -2.375 2.92578125 C-1 1 -1 1 0 0 Z " fill="#4D82A9" transform="translate(1244,52)"/>
<path d="M0 0 C0 3.80205426 -1.2000969 5.11156561 -3.375 8.1875 C-4.00148438 9.08855469 -4.62796875 9.98960938 -5.2734375 10.91796875 C-6.12808594 11.94857422 -6.12808594 11.94857422 -7 13 C-7.66 13 -8.32 13 -9 13 C-7.11399805 7.65632782 -4.7782344 3.1854896 0 0 Z " fill="#4E83A9" transform="translate(1217,63)"/>
<path d="M0 0 C0.33 0 0.66 0 1 0 C1 2.97 1 5.94 1 9 C-1.64 9 -4.28 9 -7 9 C-6.21625 8.2575 -5.4325 7.515 -4.625 6.75 C-2.43495469 4.45566682 -1.17268614 2.87841142 0 0 Z " fill="#EFF4F7" transform="translate(1359,71)"/>
<path d="M0 0 C2.97 0 5.94 0 9 0 C9 2.64 9 5.28 9 8 C8.2575 7.236875 7.515 6.47375 6.75 5.6875 C4.5736677 3.5606298 2.47832204 1.7440044 0 0 Z " fill="#EEF2F4" transform="translate(1351,0)"/>
<path d="M0 0 C2.66666667 2.66666667 5.33333333 5.33333333 8 8 C5.36 8 2.72 8 0 8 C0 5.36 0 2.72 0 0 Z " fill="#F1F5F8" transform="translate(0,72)"/>
<path d="M0 0 C2.64 0 5.28 0 8 0 C5.33333333 2.66666667 2.66666667 5.33333333 0 8 C0 5.36 0 2.72 0 0 Z " fill="#F1F5F8" transform="translate(0,0)"/>
<path d="M0 0 C0.33 0.99 0.66 1.98 1 3 C-0.21484375 5.04296875 -0.21484375 5.04296875 -1.9375 7.1875 C-2.50339844 7.90292969 -3.06929687 8.61835937 -3.65234375 9.35546875 C-4.09707031 9.89816406 -4.54179688 10.44085938 -5 11 C-5.33 10.01 -5.66 9.02 -6 8 C-4.78515625 5.95703125 -4.78515625 5.95703125 -3.0625 3.8125 C-2.49660156 3.09707031 -1.93070313 2.38164063 -1.34765625 1.64453125 C-0.90292969 1.10183594 -0.45820312 0.55914062 0 0 Z " fill="#5487AC" transform="translate(1313,67)"/>
<path d="M0 0 C0.66 0 1.32 0 2 0 C0.83857315 4.35535069 -0.07699505 6.64619703 -4 9 C-3.35494404 5.51669784 -2.01782732 2.90567134 0 0 Z " fill="#5688AD" transform="translate(1339,56)"/>
<path d="M0 0 C0.33 0.66 0.66 1.32 1 2 C-0.65 4.31 -2.3 6.62 -4 9 C-4.33 8.01 -4.66 7.02 -5 6 C-3.59554165 3.7363436 -1.8032087 1.9791315 0 0 Z " fill="#588AAE" transform="translate(1260,68)"/>
<path d="M0 0 C0.33 0.66 0.66 1.32 1 2 C-0.65 4.31 -2.3 6.62 -4 9 C-4.33 8.01 -4.66 7.02 -5 6 C-3.59554165 3.7363436 -1.8032087 1.9791315 0 0 Z " fill="#588AAE" transform="translate(1288,57)"/>
<path d="M0 0 C0.66 0 1.32 0 2 0 C1.34 1.98 0.68 3.96 0 6 C-0.99 6 -1.98 6 -3 6 C-1.125 1.125 -1.125 1.125 0 0 Z " fill="#3B76A0" transform="translate(1343,50)"/>
</svg>
