<?xml version="1.0" encoding="UTF-8"?>
<svg version="1.1" xmlns="http://www.w3.org/2000/svg" width="1360" height="80">
<path d="M0 0 C448.8 0 897.6 0 1360 0 C1360 26.4 1360 52.8 1360 80 C911.2 80 462.4 80 0 80 C0 53.6 0 27.2 0 0 Z " fill="#286896" transform="translate(0,0)"/>
<path d="M0 0 C48.51 0 97.02 0 147 0 C147 11.22 147 22.44 147 34 C134.81589958 40.09205021 134.81589958 40.09205021 126.85449219 40.20532227 C124.99301544 40.2352401 124.99301544 40.2352401 123.09393311 40.26576233 C121.744915 40.28274393 120.39589559 40.29962283 119.046875 40.31640625 C117.66253049 40.33698876 116.27819208 40.35798557 114.89385986 40.37937927 C111.257456 40.43446607 107.62099667 40.48393414 103.98449707 40.53222656 C100.27086475 40.58253964 96.55731256 40.63817442 92.84375 40.69335938 C85.56256794 40.80077704 78.28131906 40.90225808 71 41 C73.31 41.33 75.62 41.66 78 42 C74.16713416 45.89061146 70.21140271 49.62055805 66.1875 53.3125 C65.59001953 53.86228516 64.99253906 54.41207031 64.37695312 54.97851562 C62.91885078 56.31996978 61.4595496 57.66012065 60 59 C59.01 58.505 59.01 58.505 58 58 C59.98 54.7 61.96 51.4 64 48 C61.36 47.67 58.72 47.34 56 47 C57.32 44.69 58.64 42.38 60 40 C58.8354126 40.02094727 57.6708252 40.04189453 56.47094727 40.06347656 C52.11560551 40.13633507 47.76031672 40.18196518 43.40454102 40.21972656 C41.52586787 40.2397382 39.6472562 40.26695637 37.76879883 40.30175781 C35.05534627 40.3507397 32.34272304 40.37307329 29.62890625 40.390625 C28.80040665 40.41127014 27.97190704 40.43191528 27.11830139 40.45318604 C18.17416281 40.4565632 11.22272161 36.95095229 4.7265625 30.93359375 C-0.04823577 25.58625179 -2.13167602 19.277145 -2.1875 12.1875 C-2.20167969 11.37667969 -2.21585938 10.56585938 -2.23046875 9.73046875 C-2 7 -2 7 0 0 Z " fill="#1F4F73" transform="translate(1213,0)"/>
<path d="M0 0 C3.63 0 7.26 0 11 0 C11 0.33 11 0.66 11 1 C13.31 1.33 15.62 1.66 18 2 C14.16713416 5.89061146 10.21140271 9.62055805 6.1875 13.3125 C5.59001953 13.86228516 4.99253906 14.41207031 4.37695312 14.97851562 C2.91885078 16.31996978 1.4595496 17.66012065 0 19 C-0.66 18.67 -1.32 18.34 -2 18 C-0.02 14.7 1.96 11.4 4 8 C1.36 7.67 -1.28 7.34 -4 7 C-2.68 4.69 -1.36 2.38 0 0 Z " fill="#EDDC15" transform="translate(1273,40)"/>
<path d="M0 0 C1.07765625 0.03609375 2.1553125 0.0721875 3.265625 0.109375 C4.49539063 0.17898437 4.49539063 0.17898437 5.75 0.25 C3.9375 3.25 3.9375 3.25 1.75 6.25 C0.76 6.25 -0.23 6.25 -1.25 6.25 C-1.25 5.59 -1.25 4.93 -1.25 4.25 C-4.22 4.25 -7.19 4.25 -10.25 4.25 C-7.0246569 0.27312065 -5.05259733 -0.21967814 0 0 Z " fill="#FBE303" transform="translate(1279.25,42.75)"/>
<path d="M0 0 C3.63 0 7.26 0 11 0 C11 0.33 11 0.66 11 1 C13.31 1.33 15.62 1.66 18 2 C16 4 16 4 12.375 4.16015625 C10.91647885 4.1375332 9.45809008 4.10456029 8 4.0625 C2.84898542 3.70145872 2.84898542 3.70145872 -2 5 C-1.34 3.35 -0.68 1.7 0 0 Z " fill="#D2CB20" transform="translate(1273,40)"/>
<path d="M0 0 C0.33 0.66 0.66 1.32 1 2 C-0.328125 4.53125 -0.328125 4.53125 -2.25 7.5 C-2.87390625 8.4796875 -3.4978125 9.459375 -4.140625 10.46875 C-6 13 -6 13 -9 15 C-8.36532318 11.56804384 -7.02411502 9.24308259 -5.0625 6.375 C-4.53785156 5.59898438 -4.01320313 4.82296875 -3.47265625 4.0234375 C-2 2 -2 2 0 0 Z " fill="#4C81A8" transform="translate(1236,42)"/>
<path d="M0 0 C0.33 0.99 0.66 1.98 1 3 C-0.36328125 5.69921875 -0.36328125 5.69921875 -2.3125 8.6875 C-2.94800781 9.68136719 -3.58351563 10.67523438 -4.23828125 11.69921875 C-4.81964844 12.45847656 -5.40101562 13.21773437 -6 14 C-6.66 14 -7.32 14 -8 14 C-7.36561334 10.53466285 -5.98631946 8.20125787 -4 5.3125 C-3.46375 4.52488281 -2.9275 3.73726562 -2.375 2.92578125 C-1 1 -1 1 0 0 Z " fill="#4D82A9" transform="translate(1244,52)"/>
<path d="M0 0 C0.33 0.99 0.66 1.98 1 3 C-0.36328125 5.4453125 -0.36328125 5.4453125 -2.3125 8.125 C-3.26576172 9.45917969 -3.26576172 9.45917969 -4.23828125 10.8203125 C-6 13 -6 13 -8 14 C-7.36561334 10.53466285 -5.98631946 8.20125787 -4 5.3125 C-3.46375 4.52488281 -2.9275 3.73726563 -2.375 2.92578125 C-1 1 -1 1 0 0 Z " fill="#4D82A9" transform="translate(1263,63)"/>
<path d="M0 0 C0 3.80205426 -1.2000969 5.11156561 -3.375 8.1875 C-4.00148438 9.08855469 -4.62796875 9.98960938 -5.2734375 10.91796875 C-6.12808594 11.94857422 -6.12808594 11.94857422 -7 13 C-7.66 13 -8.32 13 -9 13 C-7.11399805 7.65632782 -4.7782344 3.1854896 0 0 Z " fill="#4E83A9" transform="translate(1217,63)"/>
<path d="M0 0 C0.33 0 0.66 0 1 0 C1 2.97 1 5.94 1 9 C-1.64 9 -4.28 9 -7 9 C-6.21625 8.2575 -5.4325 7.515 -4.625 6.75 C-2.43495469 4.45566682 -1.17268614 2.87841142 0 0 Z " fill="#EFF4F7" transform="translate(1359,71)"/>
<path d="M0 0 C2.97 0 5.94 0 9 0 C9 2.64 9 5.28 9 8 C8.2575 7.236875 7.515 6.47375 6.75 5.6875 C4.5736677 3.5606298 2.47832204 1.7440044 0 0 Z " fill="#EEF2F4" transform="translate(1351,0)"/>
<path d="M0 0 C2.66666667 2.66666667 5.33333333 5.33333333 8 8 C5.36 8 2.72 8 0 8 C0 5.36 0 2.72 0 0 Z " fill="#F1F5F8" transform="translate(0,72)"/>
<path d="M0 0 C2.64 0 5.28 0 8 0 C5.33333333 2.66666667 2.66666667 5.33333333 0 8 C0 5.36 0 2.72 0 0 Z " fill="#F1F5F8" transform="translate(0,0)"/>
<path d="M0 0 C0.33 0.99 0.66 1.98 1 3 C-0.21484375 5.04296875 -0.21484375 5.04296875 -1.9375 7.1875 C-2.50339844 7.90292969 -3.06929687 8.61835937 -3.65234375 9.35546875 C-4.09707031 9.89816406 -4.54179688 10.44085938 -5 11 C-5.33 10.01 -5.66 9.02 -6 8 C-4.78515625 5.95703125 -4.78515625 5.95703125 -3.0625 3.8125 C-2.49660156 3.09707031 -1.93070313 2.38164063 -1.34765625 1.64453125 C-0.90292969 1.10183594 -0.45820312 0.55914062 0 0 Z " fill="#5487AC" transform="translate(1313,67)"/>
<path d="M0 0 C0.66 0 1.32 0 2 0 C0.7580393 3.43927579 -0.55740284 6.25207819 -3 9 C-3.66 9 -4.32 9 -5 9 C-3.7580393 5.56072421 -2.44259716 2.74792181 0 0 Z " fill="#5588AD" transform="translate(1204,58)"/>
<path d="M0 0 C0.33 0.99 0.66 1.98 1 3 C-0.65 4.65 -2.3 6.3 -4 8 C-4.66 7.67 -5.32 7.34 -6 7 C-2.25 1.125 -2.25 1.125 0 0 Z " fill="#DFD73C" transform="translate(1277,51)"/>
<path d="M0 0 C0.66 0 1.32 0 2 0 C0.83857315 4.35535069 -0.07699505 6.64619703 -4 9 C-3.35494404 5.51669784 -2.01782732 2.90567134 0 0 Z " fill="#5688AD" transform="translate(1339,56)"/>
<path d="M0 0 C0.66 0 1.32 0 2 0 C0.68775452 3.93673644 -0.91910327 6.22719294 -4 9 C-3.35494404 5.51669784 -2.01782732 2.90567134 0 0 Z " fill="#5889AE" transform="translate(1302,60)"/>
<path d="M0 0 C0.33 0.66 0.66 1.32 1 2 C-2.75 7.875 -2.75 7.875 -5 9 C-4.42647107 5.12867972 -2.51295648 2.91827204 0 0 Z " fill="#5789AE" transform="translate(1251,59)"/>
<path d="M0 0 C0.66 0 1.32 0 2 0 C0.125 4.75 0.125 4.75 -1 7 C-1.99 6.67 -2.98 6.34 -4 6 C-2.7260411 3.96166576 -1.38938077 1.96147874 0 0 Z " fill="#5E8EB1" transform="translate(1217,73)"/>
<path d="M0 0 C0.33 0.66 0.66 1.32 1 2 C-0.65 4.31 -2.3 6.62 -4 9 C-4.33 8.01 -4.66 7.02 -5 6 C-3.59554165 3.7363436 -1.8032087 1.9791315 0 0 Z " fill="#588AAE" transform="translate(1288,57)"/>
<path d="M0 0 C0.33 0.66 0.66 1.32 1 2 C-0.65 4.31 -2.3 6.62 -4 9 C-4.33 8.01 -4.66 7.02 -5 6 C-3.59554165 3.7363436 -1.8032087 1.9791315 0 0 Z " fill="#588AAE" transform="translate(1331,47)"/>
<path d="M0 0 C0.66 0 1.32 0 2 0 C1.34 1.98 0.68 3.96 0 6 C-0.99 6 -1.98 6 -3 6 C-1.125 1.125 -1.125 1.125 0 0 Z " fill="#3B76A0" transform="translate(1343,50)"/>
<path d="M0 0 C0.99 0.33 1.98 0.66 3 1 C1.35 2.65 -0.3 4.3 -2 6 C-2 2 -2 2 0 0 Z " fill="#FEE718" transform="translate(1282,43)"/>
</svg>
